# File created by Blade
# Date/Time:  Wed Jan 21 17:41:14 2015
# Frame Rate: 120.000 fps
#------------------------------------------------------
:FULLY-SPECIFIED
:DEGREES
567
root 21.087837 35.785521 -21.430185 -106.900784 85.306058 -196.655439
Spine 65.387927 0.526907 2.608237
Head -44.070722 0.082796 3.866235
LeftShoulder 3.309442 -56.631762 34.246624
LeftArm 51.514452 -21.550830 -3.007676
LeftForeArm -15.474558 -0.000000 3.308749
LeftHand 1.799620 -0.000000 8.019955
LeftHandThumb1 -26.253704 0.000000 33.147579
RightShoulder 5.996373 25.782790 -40.971431
RightArm 47.199957 53.372745 15.648038
RightForeArm -7.956852 -0.000000 15.058370
RightHand -11.789768 -0.000000 -44.640947
RightHandThumb1 -24.326973 -0.000000 -32.862282
LeftUpLeg -73.633769 1.486722 5.982913
LeftLeg 1.601721 -0.000000 -0.000000
LeftFoot -18.915502 24.567035 -11.503120
LeftToeBase 16.622833 -0.000000 -0.000000
RightUpLeg -81.443666 2.357753 6.591112
RightLeg 11.404443 -0.000000 -0.000000
RightFoot -23.324626 -23.904260 13.839139
RightToeBase 13.348591 -0.000000 -0.000000
568
root 21.192076 35.737316 -21.395182 -105.841358 85.270966 -195.460689
Spine 65.435362 0.641564 2.871426
Head -43.671201 -0.262360 3.778261
LeftShoulder 3.216223 -56.593071 33.886342
LeftArm 52.042080 -21.409049 -3.571132
LeftForeArm -15.249580 -0.000000 3.534462
LeftHand 1.792809 0.000000 8.217902
LeftHandThumb1 -26.253704 0.000000 33.147579
RightShoulder 5.963782 25.573683 -41.074077
RightArm 47.473925 53.011371 15.898023
RightForeArm -8.017167 0.000000 14.958689
RightHand -11.697039 -0.000000 -45.901444
RightHandThumb1 -24.326973 -0.000000 -32.862282
LeftUpLeg -72.771365 1.784474 5.830957
LeftLeg 1.984452 -0.000000 -0.000000
LeftFoot -19.399151 24.913931 -11.624965
LeftToeBase 16.531985 -0.000000 -0.000000
RightUpLeg -81.522422 2.519193 6.333803
RightLeg 12.211817 -0.000000 -0.000000
RightFoot -23.809194 -23.826038 14.248681
RightToeBase 12.922486 -0.000000 -0.000000
569
root 21.292806 35.684268 -21.364155 -105.359933 85.298353 -194.776467
Spine 65.535995 0.704624 3.000267
Head -43.258470 -0.492330 3.643594
LeftShoulder 3.066646 -56.310869 33.612517
LeftArm 52.448383 -21.371403 -3.955936
LeftForeArm -15.084952 0.000000 3.787068
LeftHand 1.795495 -0.000000 8.335116
LeftHandThumb1 -26.253704 0.000000 33.147579
RightShoulder 6.055447 25.446121 -41.126658
RightArm 47.699254 52.657519 16.081776
RightForeArm -8.125476 0.000000 14.805729
RightHand -11.800327 -0.000000 -47.166412
RightHandThumb1 -24.326973 -0.000000 -32.862282
LeftUpLeg -71.790169 2.055996 5.591113
LeftLeg 2.414254 -0.000000 -0.000000
LeftFoot -19.843559 25.307843 -11.864592
LeftToeBase 16.151419 -0.000000 -0.000000
RightUpLeg -81.586806 2.657183 6.039587
RightLeg 13.096310 -0.000000 -0.000000
RightFoot -24.383111 -23.831552 14.519025
RightToeBase 12.759981 -0.000000 -0.000000
570
root 21.406290 35.618559 -21.336574 -104.820601 85.398077 -193.883648
Spine 65.868197 0.833936 3.125312
Head -42.966893 -0.797241 3.577034
LeftShoulder 2.966655 -56.268402 33.336291
LeftArm 52.750841 -21.120189 -4.194441
LeftForeArm -14.890215 -0.000000 4.034834
LeftHand 1.724306 -0.000000 8.435046
LeftHandThumb1 -26.253704 0.000000 33.147579
RightShoulder 6.084063 25.229874 -41.162574
RightArm 47.867711 52.390931 16.097731
RightForeArm -8.294241 -0.000000 14.621981
RightHand -11.947097 -0.000000 -48.351403
RightHandThumb1 -24.326973 -0.000000 -32.862282
LeftUpLeg -70.553053 2.410572 5.130429
LeftLeg 2.797702 -0.000000 -0.000000
LeftFoot -20.171656 25.561098 -11.917730
LeftToeBase 15.882883 -0.000000 -0.000000
RightUpLeg -81.529719 2.781310 5.877394
RightLeg 14.076234 -0.000000 -0.000000
RightFoot -25.005575 -23.764140 14.723800
RightToeBase 12.632606 -0.000000 -0.000000
571
root 21.499294 35.559060 -21.304521 -103.837953 85.495209 -192.674680
Spine 65.971095 1.023669 3.304419
Head -42.559411 -1.125891 3.490045
LeftShoulder 2.904562 -56.386926 33.055672
LeftArm 53.033702 -20.583321 -4.480624
LeftForeArm -14.829914 0.000000 4.315820
LeftHand 1.707215 0.000000 8.485569
LeftHandThumb1 -26.253704 0.000000 33.147579
RightShoulder 6.109652 24.960727 -41.241542
RightArm 48.077167 52.127588 16.330147
RightForeArm -8.376478 -0.000000 14.541433
RightHand -11.861952 0.000000 -49.678203
RightHandThumb1 -24.326973 -0.000000 -32.862282
LeftUpLeg -69.482649 2.840946 4.637153
LeftLeg 3.268275 -0.000000 -0.000000
LeftFoot -20.462041 25.734501 -12.209998
LeftToeBase 15.408750 -0.000000 -0.000000
RightUpLeg -81.649283 2.984989 5.648037
RightLeg 15.074250 -0.000000 -0.000000
RightFoot -25.644096 -23.779443 15.123940
RightToeBase 12.512844 -0.000000 -0.000000
572
root 21.573837 35.498232 -21.259896 -101.652311 85.577303 -190.369512
Spine 65.875330 1.293022 3.451565
Head -42.074390 -1.376356 3.400085
LeftShoulder 2.774849 -56.205113 32.827596
LeftArm 53.315254 -20.110941 -4.612234
LeftForeArm -14.939009 -0.000000 4.595245
LeftHand 1.682558 -0.000000 8.680392
LeftHandThumb1 -26.253704 0.000000 33.147579
RightShoulder 6.174715 24.725501 -41.241771
RightArm 48.502141 51.791281 16.707392
RightForeArm -8.584698 -0.000000 14.325327
RightHand -11.745428 -0.000000 -51.011083
RightHandThumb1 -24.326973 -0.000000 -32.862282
LeftUpLeg -68.553498 3.449745 4.077443
LeftLeg 3.804139 -0.000000 -0.000000
LeftFoot -20.719619 25.645537 -12.342958
LeftToeBase 15.183769 -0.000000 -0.000000
RightUpLeg -81.901688 3.330646 5.394315
RightLeg 16.056687 -0.000000 -0.000000
RightFoot -26.250481 -23.910052 15.542740
RightToeBase 12.401672 -0.000000 -0.000000
573
root 21.657375 35.425212 -21.234602 -100.176708 85.629403 -188.627480
Spine 65.987875 1.397317 3.629535
Head -41.693503 -1.592532 3.180239
LeftShoulder 2.589727 -55.947835 32.574696
LeftArm 53.541814 -19.829278 -4.783022
LeftForeArm -14.865250 -0.000000 4.964139
LeftHand 1.640636 -0.000000 8.819728
LeftHandThumb1 -26.253704 0.000000 33.147579
RightShoulder 6.248782 24.489480 -41.371854
RightArm 48.861198 51.580828 17.113397
RightForeArm -8.963691 -0.000000 14.218147
RightHand -11.691600 0.000000 -52.224147
RightHandThumb1 -24.326973 -0.000000 -32.862282
LeftUpLeg -67.465976 4.077208 3.328349
LeftLeg 4.371199 -0.000000 -0.000000
LeftFoot -20.885255 25.401614 -12.259128
LeftToeBase 14.610666 -0.000000 -0.000000
RightUpLeg -81.968239 3.544736 5.316005
RightLeg 17.031386 -0.000000 -0.000000
RightFoot -26.885821 -24.021447 15.755453
RightToeBase 12.368182 -0.000000 -0.000000
